<svg width="149" height="149" viewBox="0 0 149 149" fill="none" xmlns="http://www.w3.org/2000/svg">
<rect x="53.9353" y="3.16288" width="76.385" height="127.011" rx="7.5" transform="rotate(15 53.9353 3.16288)" fill="#3D2584" stroke="#B2CED7" stroke-width="3"/>
<circle cx="61.992" cy="121.557" r="8.59255" transform="rotate(15 61.992 121.557)" fill="#D9D9D9"/>
<path fill-rule="evenodd" clip-rule="evenodd" d="M85.8541 32.5024C96.1368 35.2576 105.764 32.6705 107.358 26.7239L107.358 26.7238L114.192 28.5552C116.86 29.2699 118.443 32.0116 117.728 34.6789L114.093 48.2436L107.696 46.5295L107.095 48.7727L113.492 50.4868L99.3072 103.426L92.91 101.712L92.3089 103.955L98.7062 105.669L95.4324 117.887C94.7176 120.555 91.976 122.138 89.3086 121.423L82.4579 119.587C83.5887 113.74 76.6429 106.97 66.6202 104.284C56.5976 101.599 47.1974 103.989 45.2529 109.618L37.9534 107.662C35.286 106.948 33.7031 104.206 34.4178 101.539L37.6916 89.3205L44.0893 91.0348L44.6904 88.7916L38.2927 87.0774L52.4778 34.138L58.8754 35.8523L59.4764 33.6091L53.0788 31.8949L56.7135 18.3301C57.4282 15.6628 60.1699 14.0799 62.8372 14.7946L70.1208 16.7462L70.1208 16.7464C68.5274 22.693 75.5714 29.7472 85.8541 32.5024ZM73.3412 39.7284L63.6973 37.1443L64.2984 34.9011L73.9423 37.4852L73.3412 39.7284ZM87.8071 43.6045L78.1632 41.0204L78.7643 38.7772L88.4082 41.3613L87.8071 43.6045ZM102.273 47.4806L92.6291 44.8965L93.2301 42.6534L102.874 45.2374L102.273 47.4806ZM58.5552 94.9109L48.9113 92.3268L49.5123 90.0836L59.1562 92.6677L58.5552 94.9109ZM73.0211 98.787L63.3771 96.2029L63.9782 93.9598L73.6221 96.5438L73.0211 98.787ZM87.4869 102.663L77.843 100.079L78.4441 97.8359L88.088 100.42L87.4869 102.663Z" fill="#DCAC75"/>
</svg>
